<?xml version="1.0" encoding="UTF-8"?>
<svg version="1.1" xmlns="http://www.w3.org/2000/svg" width="512" height="512">
<path d="M0 0 C2.86143406 2.30893815 5.66565119 4.67393524 8.4609375 7.0625 C9.52811891 7.96676806 10.59584104 8.8703983 11.6640625 9.7734375 C13.32134767 11.17497792 14.97812144 12.57708678 16.6328125 13.98168945 C20.8463135 17.55608484 25.10720949 21.06817207 29.390625 24.55859375 C38.96432508 32.36615323 48.50269724 40.21377634 57.91381836 48.21679688 C62.20738435 51.86303358 66.55513674 55.43892782 70.92578125 58.9921875 C73.4609375 61.0625 73.4609375 61.0625 75.90039062 63.65649414 C80.35556301 67.34307759 85.44136192 66.71432697 90.96484375 66.62890625 C92.63715309 66.63735817 92.63715309 66.63735817 94.34324646 66.64598083 C97.90373846 66.66241328 101.46298919 66.64692899 105.0234375 66.625 C141.36211574 66.45350908 141.36211574 66.45350908 153.4609375 78.0625 C159.86580301 84.40992277 165.05971945 92.8379333 165.57217407 102.06549072 C165.54015441 104.24777353 165.45221257 106.42157557 165.34765625 108.6015625 C163.846153 126.72263007 163.846153 126.72263007 169.47265625 143.13671875 C172.48609175 146.01140102 175.85492636 148.10733338 179.54101562 150.02099609 C182.36645521 151.55371803 184.66602952 153.58618937 187.0859375 155.6875 C187.95089844 156.38746094 188.81585938 157.08742187 189.70703125 157.80859375 C193.46008134 160.880239 197.1439148 164.03117067 200.82543945 167.18798828 C203.71471307 169.64865959 206.63733228 171.9287186 209.7734375 174.0625 C218.10991123 180.21351339 222.67048677 189.31582983 225.4609375 199.0625 C225.96702448 202.68319542 226.00350119 206.22631637 225.96887207 209.87817383 C225.97823201 211.42421279 225.97823201 211.42421279 225.98778105 213.00148487 C226.00362205 216.42440593 225.99114136 219.84660604 225.97851562 223.26953125 C225.98394067 225.73603732 225.99106547 228.20254014 225.99975586 230.66903687 C226.0160606 236.65443087 226.01373132 242.63954628 226.0021053 248.62492919 C225.99304463 253.49253339 225.99185831 258.36008142 225.99620056 263.22769165 C225.99681349 263.92241634 225.99742643 264.61714103 225.99805793 265.33291799 C225.99933693 266.74456209 226.00063378 268.15620617 226.0019483 269.56785023 C226.01333442 282.78202668 226.00027139 295.99609183 225.97874683 309.21025002 C225.96087761 320.53052185 225.96398227 331.85062957 225.98242188 343.17089844 C226.00386348 356.34015825 226.01223596 369.50932071 225.99997282 382.67859554 C225.99869872 384.08483313 225.99744124 385.49107073 225.99620056 386.89730835 C225.99527491 387.93495298 225.99527491 387.93495298 225.99433056 388.99356014 C225.9908875 393.85116891 225.99668336 398.70871555 226.00611877 403.5663147 C226.01855663 410.11309411 226.00960844 416.65961277 225.98654175 423.20637894 C225.98126717 425.60447299 225.98274688 428.00259319 225.99159241 430.40067673 C226.00258059 433.68307378 225.9887438 436.96449095 225.96887207 440.24682617 C225.9822564 441.65828777 225.9822564 441.65828777 225.99591112 443.09826374 C225.85323548 455.31185779 220.96960376 464.47557323 212.51171875 473.03515625 C200.56173705 484.09299786 187.29077851 484.36025115 171.79998779 484.32992554 C169.99069601 484.33366469 168.18140585 484.33826726 166.37211823 484.34365618 C161.41224085 484.35586877 156.45243101 484.35562777 151.49254203 484.35326743 C146.13860778 484.35285883 140.78469506 484.36390255 135.43077087 484.37338257 C124.94599301 484.3899838 114.46123764 484.39549171 103.97644773 484.39660732 C95.4527426 484.39755818 86.92904489 484.40167033 78.4053421 484.40800858 C54.23119033 484.42561829 30.0570563 484.43484782 5.88289806 484.43334763 C4.58011104 484.43326772 3.27732401 484.4331878 1.93505859 484.43310547 C0.63067826 484.43302371 -0.67370208 484.43294195 -2.01760909 484.43285771 C-23.15705996 484.4320448 -44.29643958 484.45118443 -65.43586984 484.4793822 C-87.1494109 484.50811692 -108.86291721 484.52192218 -130.57647777 484.52019465 C-142.76389879 484.51953097 -154.9512451 484.52501367 -167.13864899 484.54655075 C-177.51503306 484.56477019 -187.89130856 484.56910352 -198.26770172 484.5555319 C-203.5594471 484.54900629 -208.85098422 484.54887057 -214.14270973 484.5662384 C-218.99249987 484.58199176 -223.841917 484.57908227 -228.69169816 484.56167014 C-230.44064112 484.55860526 -232.18961208 484.56221322 -233.93852201 484.57339029 C-248.99872008 484.66321874 -262.23178945 482.71100055 -273.69140625 472.0625 C-281.25557898 464.17434967 -285.67483376 454.86195962 -285.65258789 443.91699219 C-285.65251236 442.67600769 -285.65243683 441.43502319 -285.65235901 440.15643311 C-285.64725281 438.80741333 -285.64203682 437.45839396 -285.63671875 436.109375 C-285.63485274 434.72503714 -285.6334297 433.34069862 -285.63243103 431.95635986 C-285.62862023 428.31988692 -285.61880225 424.68345418 -285.60772705 421.04699707 C-285.597482 417.33342024 -285.59292679 413.6198369 -285.58789062 409.90625 C-285.57717866 402.62498171 -285.56011954 395.3437465 -285.5390625 388.0625 C-284.5490625 387.7325 -283.5590625 387.4025 -282.5390625 387.0625 C-282.5390625 378.1525 -282.5390625 369.2425 -282.5390625 360.0625 C-283.5290625 359.7325 -284.5190625 359.4025 -285.5390625 359.0625 C-285.63267485 338.53876802 -285.70312435 318.01507145 -285.74631119 297.49116898 C-285.76690026 287.96067398 -285.79495067 278.43031196 -285.84082031 268.89990234 C-285.88080031 260.58920122 -285.90652186 252.27859644 -285.91541648 243.96780181 C-285.9206124 239.57088394 -285.93274772 235.17424161 -285.96198273 230.77741241 C-285.98932867 226.63071387 -285.99746919 222.48440184 -285.99149323 218.33762169 C-285.99258496 216.82361176 -286.00042403 215.30958759 -286.0158844 213.7956562 C-286.14061705 200.94033468 -284.3930017 189.85743757 -275.5390625 180.0625 C-274.76949219 179.20785156 -274.76949219 179.20785156 -273.984375 178.3359375 C-269.8434943 173.99692854 -265.22737836 170.27308866 -260.5625 166.515625 C-257.34901324 163.90829983 -254.18996397 161.24468389 -251.0390625 158.5625 C-246.13174209 154.39098711 -241.1761678 150.28567154 -236.171875 146.23046875 C-235.30304688 145.51503906 -234.43421875 144.79960937 -233.5390625 144.0625 C-232.95774063 143.65785019 -232.37641876 143.25320038 -231.77748108 142.83628845 C-228.05599885 140.10284143 -228.05599885 140.10284143 -225.91229248 136.14195251 C-225.7013016 133.9286319 -225.69924799 131.80785945 -225.77734375 129.5859375 C-225.77453903 128.77943756 -225.77173431 127.97293762 -225.7688446 127.14199829 C-225.76358837 124.57245833 -225.80396939 122.00656184 -225.8515625 119.4375 C-226.06192822 102.57291406 -225.03781123 90.14310709 -212.91796875 77.3515625 C-205.77573851 70.60326822 -196.20996774 66.81535696 -186.42016602 67.04760742 C-184.92689537 67.07578804 -184.92689537 67.07578804 -183.40345764 67.10453796 C-182.33574631 67.12547012 -181.26803497 67.14640228 -180.16796875 67.16796875 C-176.68335384 67.19199058 -173.19878139 67.20546651 -169.71411133 67.21899414 C-167.32160633 67.23952858 -164.92918273 67.27963272 -162.53735352 67.34008789 C-145.57508864 68.09517993 -145.57508864 68.09517993 -131.2265625 60.2734375 C-129.71630564 58.73638305 -128.27802074 57.16922155 -126.87217712 55.53642273 C-124.79956968 53.24489943 -122.404316 51.39953361 -119.9765625 49.5 C-115.95548159 46.23471697 -111.98561088 42.91692156 -108.0390625 39.5625 C-103.18594988 35.43838655 -98.28093121 31.38584329 -93.33984375 27.3671875 C-90.82195458 25.29528428 -88.33421835 23.19420898 -85.85449219 21.07714844 C-79.07430999 15.28938643 -72.13585807 9.73945147 -65.09033203 4.27880859 C-63.70255214 3.19068782 -62.33605108 2.07555456 -60.97265625 0.95703125 C-43.29371192 -13.46283812 -18.2269896 -13.90859514 0 0 Z " fill="#3C322B" transform="translate(285.5390625,27.9375)"/>
<path d="M0 0 C8.91 0 17.82 0 27 0 C27.33 0.66 27.66 1.32 28 2 C29.00065491 2.00364563 30.00130981 2.00729126 31.0322876 2.01104736 C40.50593724 2.04813969 49.9792661 2.10606648 59.45267105 2.18390274 C64.32197583 2.22325401 69.1911031 2.25550269 74.06054688 2.27099609 C78.76811644 2.28624451 83.4751976 2.32083347 88.18254852 2.36830902 C89.97004681 2.38303895 91.75761487 2.39103615 93.54517365 2.39188385 C106.63316956 2.40432187 118.5454336 3.09551111 129.02734375 11.94140625 C137.24756419 20.5197353 139.29068283 29.86176458 139.43334961 41.33862305 C139.45452347 42.47275131 139.47569733 43.60687958 139.49751282 44.77537537 C139.67807119 55.20863543 139.7717398 65.64409841 139.83782101 76.07872295 C139.88725615 83.77798821 139.97994386 91.47402414 140.13173288 99.17197007 C140.24763994 105.25889546 140.29157073 111.34455051 140.3112812 117.43250465 C140.33020572 120.01101412 140.37137674 122.58946357 140.43562126 125.16724205 C140.93654386 146.38154113 140.93654386 146.38154113 136.20828247 151.93496704 C133.0984166 154.85852299 129.69445922 156.88568934 126 159 C124.1403231 160.46721265 122.30186567 161.96234229 120.5 163.5 C119.61441406 164.22058594 118.72882813 164.94117188 117.81640625 165.68359375 C114.66214808 168.27787266 111.5479702 170.91606265 108.4375 173.5625 C103.88715684 177.43241802 99.27167165 181.19959897 94.58984375 184.91015625 C90.96869031 187.83220315 87.43045431 190.84821486 83.88671875 193.86328125 C80.45428391 196.78004513 76.99407185 199.65693426 73.5 202.5 C69.46016863 205.78823483 65.46907935 209.12721426 61.5 212.5 C56.65040619 216.62101634 51.74839194 220.66991354 46.8125 224.6875 C43.68198986 227.261475 40.58877591 229.87626452 37.5 232.5 C35.8664574 233.88332766 34.2322825 235.26590227 32.59765625 236.64794922 C31.54183131 237.54146366 30.48712189 238.43629812 29.43359375 239.33251953 C27.96117297 240.58228845 26.48073027 241.82258742 25 243.0625 C24.154375 243.77535156 23.30875 244.48820313 22.4375 245.22265625 C20.01931912 246.98591314 17.81856902 248.02860032 15 249 C14.11699219 248.23816406 13.23398437 247.47632813 12.32421875 246.69140625 C4.96631875 240.35532224 -2.43317199 234.08658669 -10 228 C-10.84377197 227.31260742 -10.84377197 227.31260742 -11.70458984 226.61132812 C-27.50290986 213.75411659 -40.38043938 209.12085816 -61 211 C-74.61154196 214.07403521 -85.14435211 224.85161453 -95.33203125 233.80078125 C-100.11661153 237.99556736 -105.01941096 242.03953161 -110 246 C-110.65613281 246.61617187 -111.31226563 247.23234375 -111.98828125 247.8671875 C-114 249 -114 249 -116.4609375 248.44140625 C-119.23695414 246.86548296 -121.3088761 245.13355728 -123.625 242.9375 C-127.98084449 238.90335746 -132.46882419 235.1176233 -137.08203125 231.3828125 C-140.25417407 228.79244152 -143.38043294 226.15317133 -146.5 223.5 C-150.46891888 220.12703063 -154.46017431 216.78823022 -158.5 213.5 C-162.53983543 210.21176186 -166.53080427 206.87265239 -170.5 203.5 C-175.2691121 199.44987401 -180.07912432 195.45647887 -184.9296875 191.50390625 C-193.96778786 184.13313992 -202.98751951 176.73956991 -211.875 169.1875 C-221.16543108 160.90920165 -221.16543108 160.90920165 -231.20622444 153.64955425 C-237.48881113 149.52592117 -237.48881113 149.52592117 -238.83340073 145.51226234 C-239.14284562 142.49702649 -239.17116645 139.59419401 -239.10107422 136.5637207 C-239.11509277 134.8647187 -239.11509277 134.8647187 -239.12939453 133.13139343 C-239.14858101 129.39477057 -239.10295688 125.6620946 -239.0546875 121.92578125 C-239.05058947 119.31894737 -239.04975358 116.71210649 -239.05203247 114.10527039 C-239.05010879 108.64171338 -239.01309346 103.17928165 -238.95361328 97.71606445 C-238.88544437 91.42820864 -238.86592662 85.14171939 -238.8743819 78.85353023 C-238.88195201 72.77662233 -238.86036892 66.70024017 -238.82483292 60.62343407 C-238.81149748 58.05162192 -238.80437541 55.47976939 -238.80373764 52.90792274 C-238.79755217 49.29898911 -238.75846166 45.69184189 -238.71044922 42.08325195 C-238.71428619 41.03400543 -238.71812317 39.98475891 -238.72207642 38.90371704 C-238.54768841 30.13815782 -236.08266462 21.72471158 -230.75 14.625 C-222.12530188 6.39233361 -212.86738936 2.52807086 -200.98326111 2.60127258 C-199.69153271 2.59130234 -199.69153271 2.59130234 -198.37370878 2.58113068 C-195.51325758 2.56260766 -192.6532286 2.56509872 -189.79272461 2.56762695 C-187.73230402 2.55860326 -185.67188879 2.54827455 -183.61148071 2.53674316 C-178.03573093 2.50921849 -172.46008315 2.49989476 -166.88427424 2.49388909 C-161.05062127 2.48449367 -155.21704412 2.4582893 -149.38343811 2.43388367 C-138.3445959 2.3902472 -127.30576843 2.36168267 -116.26686627 2.33856028 C-103.69611539 2.31149336 -91.1254409 2.26758273 -78.5547446 2.22227156 C-52.70320451 2.12946611 -26.85164046 2.05776655 -1 2 C-0.67 1.34 -0.34 0.68 0 0 Z " fill="#FAE6C9" transform="translate(305,99)"/>
<path d="M0 0 C3.38361193 2.47984755 6.59832382 5.14648766 9.79296875 7.86328125 C10.66187744 8.59804688 10.66187744 8.59804688 11.54833984 9.34765625 C14.53179702 11.87719765 17.4979067 14.42582949 20.453125 16.98828125 C24.24328932 20.26696263 28.12546031 23.42696383 32.015625 26.5859375 C35.13693242 29.14532179 38.21746905 31.74921916 41.29296875 34.36328125 C46.1411167 38.48317579 51.0414288 42.5312422 55.9765625 46.546875 C59.13082067 49.14115391 62.24499855 51.7793439 65.35546875 54.42578125 C69.12385814 57.63067316 72.91542903 60.79015819 76.79296875 63.86328125 C81.24550576 67.39211528 85.57982854 71.04557454 89.90625 74.7265625 C93.33868484 77.64332638 96.7988969 80.52021551 100.29296875 83.36328125 C104.89750455 87.11115923 109.43316066 90.93311569 113.95703125 94.77734375 C117.37356415 97.67572948 120.81801713 100.53483225 124.29296875 103.36328125 C128.89750455 107.11115923 133.43316066 110.93311569 137.95703125 114.77734375 C141.37356415 117.67572948 144.81801713 120.53483225 148.29296875 123.36328125 C152.33280575 126.65152067 156.3237291 129.99067903 160.29296875 133.36328125 C167.30677239 139.31830085 174.42490324 145.13906537 181.578125 150.92578125 C188.10702985 156.21108518 194.62117524 161.51045725 201.04296875 166.92578125 C201.56745605 167.36647949 202.09194336 167.80717773 202.63232422 168.26123047 C205.48395742 170.67889916 208.18999811 173.17974247 210.79296875 175.86328125 C209.6130665 176.66622772 208.42351186 177.45499299 207.23046875 178.23828125 C206.56917969 178.67914063 205.90789062 179.12 205.2265625 179.57421875 C199.73309648 182.48408036 194.23112227 183.15742439 188.10633469 183.12055016 C187.36035729 183.12405623 186.61437989 183.1275623 185.84579712 183.13117462 C183.35014638 183.14046659 180.85473013 183.13557103 178.35906982 183.13070679 C176.55007877 183.13444416 174.74108933 183.13904603 172.93210244 183.14443743 C167.96384521 183.15667211 162.99565529 183.15640641 158.02738643 183.15404868 C152.6680019 183.15364063 147.30863899 183.16467851 141.94926453 183.17416382 C131.45017822 183.19077737 120.95111437 183.19627353 110.45201603 183.19738857 C101.9177577 183.19833888 93.38350678 183.20244831 84.84925079 183.20878983 C60.6531514 183.22640322 36.45706974 183.23562854 12.26096389 183.23412888 C10.95652061 183.23404897 9.65207733 183.23396905 8.30810547 183.23388672 C6.34905153 183.23376408 6.34905153 183.23376408 4.35042074 183.23363896 C-16.81637447 183.23282603 -37.98309853 183.25196509 -59.14987317 183.28016345 C-80.88368147 183.30888876 -102.61745507 183.32270394 -124.35128284 183.3209759 C-136.55320156 183.32031188 -148.7550457 183.32580963 -160.95694733 183.347332 C-171.34588028 183.36553911 -181.73470483 183.36989494 -192.12364683 183.35631315 C-197.42323145 183.34978119 -202.72260806 183.34967475 -208.02217293 183.36701965 C-212.87687272 183.38274502 -217.73119948 183.37989204 -222.58589014 183.36245139 C-224.33889495 183.35938034 -226.09192756 183.36301784 -227.84489956 183.37417154 C-238.53867028 183.43768816 -248.02129122 182.98710794 -257.20703125 176.86328125 C-255.8960763 173.91016186 -254.57292845 172.03563516 -252.1171875 169.9453125 C-251.50327148 169.41776367 -250.88935547 168.89021484 -250.25683594 168.34667969 C-249.60102539 167.7952832 -248.94521484 167.24388672 -248.26953125 166.67578125 C-247.59438477 166.09989258 -246.91923828 165.52400391 -246.22363281 164.93066406 C-240.61561799 160.16292078 -234.93286864 155.4886574 -229.20703125 150.86328125 C-222.75999138 145.626243 -216.37276289 140.32785216 -210.04345703 134.94970703 C-205.745915 131.30373193 -201.39045324 127.73350845 -197.01953125 124.17578125 C-193.88903459 121.60181733 -190.79530664 118.98759039 -187.70703125 116.36328125 C-182.85743744 112.24226491 -177.95542319 108.19336771 -173.01953125 104.17578125 C-169.88903459 101.60181733 -166.79530664 98.98759039 -163.70703125 96.36328125 C-158.85743744 92.24226491 -153.95542319 88.19336771 -149.01953125 84.17578125 C-145.88903274 81.6018158 -142.79537491 78.98751222 -139.70703125 76.36328125 C-133.05669474 70.71470181 -126.30582119 65.19504617 -119.53515625 59.69140625 C-113.98658842 55.1691631 -108.4978833 50.58444846 -103.04345703 45.94970703 C-98.745915 42.30373193 -94.39045324 38.73350845 -90.01953125 35.17578125 C-86.88903459 32.60181733 -83.79530664 29.98759039 -80.70703125 27.36328125 C-75.86004377 23.24447968 -70.96444024 19.19352406 -66.0234375 15.1875 C-63.98445871 13.5048476 -61.97696214 11.80605889 -59.984375 10.0703125 C-42.10106019 -5.47401158 -22.1311045 -14.74508424 0 0 Z " fill="#F06B79" transform="translate(279.20703125,322.13671875)"/>
<path d="M0 0 C4.03805866 1.36266644 6.54368118 3.1409151 9.625 6.0625 C13.98084449 10.09664254 18.46882419 13.8823767 23.08203125 17.6171875 C26.25417407 20.20755848 29.38043294 22.84682867 32.5 25.5 C37.34800649 29.62005836 42.24846418 33.6679643 47.18359375 37.68359375 C50.33785192 40.27787266 53.4520298 42.91606265 56.5625 45.5625 C60.33088939 48.76739191 64.12246028 51.92687694 68 55 C72.45253701 58.52883403 76.78685979 62.18229329 81.11328125 65.86328125 C84.54571609 68.78004513 88.00592815 71.65693426 91.5 74.5 C96.1045358 78.24787798 100.64019191 82.06983444 105.1640625 85.9140625 C108.5805954 88.81244823 112.02504838 91.671551 115.5 94.5 C119.53983543 97.78823814 123.53080427 101.12734761 127.5 104.5 C132.26135884 108.5435416 137.06318245 112.53088688 141.90625 116.4765625 C145.86247151 119.70348055 149.80722195 122.94417859 153.75 126.1875 C154.45930664 126.76991455 155.16861328 127.3523291 155.89941406 127.95239258 C157.93754972 129.62943933 159.96885059 131.31450408 162 133 C162.68384766 133.55768066 163.36769531 134.11536133 164.07226562 134.68994141 C164.71357422 135.22151855 165.35488281 135.7530957 166.015625 136.30078125 C166.59086914 136.77298096 167.16611328 137.24518066 167.75878906 137.73168945 C169 139 169 139 169 141 C167.49212839 142.37491299 165.91460239 143.67364462 164.3125 144.9375 C163.30832031 145.74058594 162.30414063 146.54367187 161.26953125 147.37109375 C160.73408691 147.79890137 160.19864258 148.22670898 159.64697266 148.66748047 C156.89091543 150.89732932 154.19768676 153.20018076 151.5 155.5 C146.65113313 159.62185758 141.74837071 163.66993082 136.8125 167.6875 C133.68200334 170.26146392 130.58827539 172.87569086 127.5 175.5 C122.65040619 179.62101634 117.74839194 183.66991354 112.8125 187.6875 C109.68200334 190.26146392 106.58827539 192.87569086 103.5 195.5 C98.64683401 199.62405185 93.74187035 203.67665537 88.80078125 207.6953125 C85.73224213 210.22033075 82.70960188 212.79484769 79.6875 215.375 C75.25148397 219.15792492 70.73399357 222.80532737 66.125 226.375 C60.37972845 230.83051671 54.86904559 235.51143405 49.39941406 240.29980469 C44.92239615 244.21631957 40.36457063 248.01327067 35.7421875 251.7578125 C32.62999924 254.30253623 29.56271236 256.89615623 26.5 259.5 C21.53177139 263.72270052 16.51198992 267.87503081 11.44921875 271.984375 C9.23890728 273.80338731 7.08356524 275.66865274 4.9375 277.5625 C2 280 2 280 0 280 C-1.4375 278.05859375 -1.4375 278.05859375 -3 275.4375 C-3.515625 274.59058594 -4.03125 273.74367188 -4.5625 272.87109375 C-8.42210853 265.16236475 -8.29402831 257.97554767 -8.30859375 249.48046875 C-8.3273079 247.50242188 -8.34603868 245.524375 -8.36577702 243.54633808 C-8.41106639 238.68894702 -8.43489622 233.83142304 -8.45629883 228.97387695 C-8.46907697 226.23744594 -8.48971524 223.5012771 -8.51856995 220.76496887 C-8.54492196 218.19092104 -8.55870777 215.61670896 -8.5589447 213.04252625 C-8.57228348 211.88404678 -8.58562225 210.72556732 -8.59936523 209.53198242 C-8.60443588 208.50940842 -8.60950653 207.48683441 -8.61473083 206.43327332 C-8.74186966 205.63029312 -8.86900848 204.82731293 -9 204 C-9.99 203.34 -10.98 202.68 -12 202 C-12.38818359 199.32617188 -12.38818359 199.32617188 -12.3984375 195.96875 C-12.40230469 194.76605469 -12.40617188 193.56335938 -12.41015625 192.32421875 C-12.39855469 191.06222656 -12.38695312 189.80023438 -12.375 188.5 C-12.38660156 187.23800781 -12.39820313 185.97601563 -12.41015625 184.67578125 C-12.40628906 183.47308594 -12.40242187 182.27039063 -12.3984375 181.03125 C-12.39505371 179.92330078 -12.39166992 178.81535156 -12.38818359 177.67382812 C-12.26008301 176.79146484 -12.13198242 175.90910156 -12 175 C-10.515 174.01 -10.515 174.01 -9 173 C-8.54908241 170.21342509 -8.54908241 170.21342509 -8.63491821 166.87991333 C-8.62960587 165.57348373 -8.62429352 164.26705414 -8.61882019 162.92103577 C-8.62796965 161.46444553 -8.63736204 160.0078568 -8.64697266 158.55126953 C-8.6461422 157.02366505 -8.64392708 155.49606078 -8.64042664 153.96846008 C-8.63546685 150.67209706 -8.63959566 147.3759116 -8.65044022 144.07956314 C-8.66678077 138.85886539 -8.65834283 133.63839114 -8.64559937 128.41769409 C-8.61545565 114.50385924 -8.61687491 100.59006312 -8.63585222 86.67621219 C-8.6482169 77.54601264 -8.6462277 68.4160659 -8.61746442 59.28589523 C-8.60229021 54.10566826 -8.60962729 48.92612963 -8.63417459 43.74594617 C-8.64431244 40.50575982 -8.63347882 37.26588231 -8.61705971 34.02573204 C-8.61363449 32.53431209 -8.61859109 31.04284289 -8.63302803 29.55148888 C-8.73385735 18.43790734 -7.11155838 8.90460126 0 0 Z " fill="#F06B79" transform="translate(15,213)"/>
<path d="M0 0 C3.86526773 1.4587471 4.97031959 3.24854146 6.6875 6.9375 C7.10386719 7.81277344 7.52023437 8.68804687 7.94921875 9.58984375 C9.41725836 12.95705728 10.12537504 15.58901954 10.13142776 19.23272896 C10.13526891 20.10051731 10.13911005 20.96830567 10.1430676 21.86239064 C10.14220112 22.81635916 10.14133463 23.77032768 10.14044189 24.75320435 C10.14341302 25.76622207 10.14638414 26.77923979 10.1494453 27.82295501 C10.15815001 31.23370353 10.15964205 34.64441702 10.16113281 38.05517578 C10.1657598 40.49418717 10.17078429 42.93319783 10.17617798 45.37220764 C10.18931705 52.01085366 10.19578674 58.64948593 10.20018864 65.28814173 C10.20295143 69.43459736 10.20718892 73.58105067 10.21169281 77.72750473 C10.22388717 89.21059841 10.23418524 100.69369022 10.2375679 112.17679024 C10.23789725 113.27938891 10.23789725 113.27938891 10.23823325 114.4042623 C10.23845153 115.14108091 10.23866981 115.87789953 10.2388947 116.63704598 C10.23933817 118.13010097 10.23978473 119.62315595 10.24023438 121.11621094 C10.24056652 122.22711961 10.24056652 122.22711961 10.24090537 123.36047088 C10.24485083 135.35286802 10.26229637 147.34520431 10.2855939 159.33757795 C10.30932693 171.65372396 10.32177069 183.96983947 10.32293582 196.28600872 C10.32385164 203.19948634 10.32958008 210.11288473 10.34775543 217.02634048 C10.36479817 223.53190843 10.36639439 230.03736624 10.35761642 236.54295158 C10.35684569 238.92898778 10.36119357 241.31503204 10.37107468 243.7010479 C10.38378745 246.96250864 10.37792051 250.22343656 10.36749268 253.4848938 C10.37957728 254.89577009 10.37957728 254.89577009 10.39190602 256.33514893 C10.32163631 265.75551053 7.79206817 272.642508 2 280 C-1.91723795 278.34815267 -4.89095538 275.69581405 -8.0625 272.9375 C-9.2323995 271.93280906 -10.40298221 270.92891318 -11.57421875 269.92578125 C-12.44506104 269.17868896 -12.44506104 269.17868896 -13.33349609 268.41650391 C-15.64989018 266.44760287 -18.01051477 264.53573094 -20.375 262.625 C-24.82816671 259.00274487 -29.17342391 255.27124719 -33.5 251.5 C-39.57056119 246.21017916 -45.73596195 241.06013884 -52 236 C-58.44703987 230.76296175 -64.83426836 225.46457091 -71.16357422 220.08642578 C-74.58020732 217.18780161 -78.02486997 214.32859421 -81.5 211.5 C-86.1045358 207.75212202 -90.64019191 203.93016556 -95.1640625 200.0859375 C-98.5805954 197.18755177 -102.02504838 194.328449 -105.5 191.5 C-110.1045358 187.75212202 -114.64019191 183.93016556 -119.1640625 180.0859375 C-123.46013044 176.44140593 -127.81368341 172.8721266 -132.18359375 169.31640625 C-135.33785571 166.72212422 -138.45189407 164.08378225 -141.5625 161.4375 C-149.85766159 154.38929165 -158.38822109 147.65644747 -167 141 C-165.49278852 137.23618138 -163.35083069 135.41536518 -160.1875 132.9375 C-159.20136719 132.15246094 -158.21523438 131.36742187 -157.19921875 130.55859375 C-156.67634277 130.14335449 -156.1534668 129.72811523 -155.61474609 129.30029297 C-152.86524934 127.08622891 -150.18570061 124.79066232 -147.5 122.5 C-142.65123979 118.37801942 -137.74836747 114.33006654 -132.8125 110.3125 C-129.68200334 107.73853608 -126.58827539 105.12430914 -123.5 102.5 C-118.65040619 98.37898366 -113.74839194 94.33008646 -108.8125 90.3125 C-105.68200334 87.73853608 -102.58827539 85.12430914 -99.5 82.5 C-94.64683401 78.37594815 -89.74187035 74.32334463 -84.80078125 70.3046875 C-81.73224213 67.77966925 -78.70960188 65.20515231 -75.6875 62.625 C-71.25148397 58.84207508 -66.73399357 55.19467263 -62.125 51.625 C-56.37811046 47.16822852 -50.86543454 42.48641887 -45.39501953 37.69580078 C-41.81445146 34.5626872 -38.19989734 31.49280585 -34.5 28.5 C-30.0833035 24.92457903 -25.7823089 21.23388601 -21.5 17.5 C-6.03187539 4.02125026 -6.03187539 4.02125026 0 0 Z " fill="#F06B79" transform="translate(494,213)"/>
<path d="M0 0 C1.8552832 -0.00483398 1.8552832 -0.00483398 3.74804688 -0.00976562 C14.32466791 0.05175888 23.90878715 1.09724481 33.5625 5.5625 C34.24771729 5.8726001 34.93293457 6.1827002 35.63891602 6.50219727 C40.94412347 8.96086137 45.82365546 11.6969727 50.4375 15.3125 C51.17097656 15.87195313 51.90445313 16.43140625 52.66015625 17.0078125 C67.20106758 28.9298633 75.25990101 46.90012285 77.4375 65.3125 C78.76031956 86.17510767 75.46871736 107.01900304 61.4375 123.3125 C53.83156614 131.61375244 44.09790766 136.64827994 32.7890625 137.515625 C25.33071174 137.6438488 20.96813181 136.63950733 14.6875 132.5 C12.08411242 129.96892875 10.79401871 127.66809891 9.4375 124.3125 C9.4375 123.3225 9.4375 122.3325 9.4375 121.3125 C8.7775 122.01375 8.1175 122.715 7.4375 123.4375 C0.22235632 130.61199499 -8.18750509 136.62083367 -18.5625 137.3125 C-19.47128906 137.37566406 -20.38007813 137.43882812 -21.31640625 137.50390625 C-30.19758952 137.85552398 -37.27956878 136.11478407 -44.375 130.625 C-50.80689627 124.63302116 -54.51797148 116.03738106 -54.8984375 107.3359375 C-55.06359986 97.06047898 -55.11685644 87.7495834 -50.5625 78.3125 C-50.16160156 77.40886719 -49.76070312 76.50523437 -49.34765625 75.57421875 C-41.8151563 60.13805219 -28.37331686 49.42631445 -12.5625 43.3125 C-11.32113281 42.83103516 -11.32113281 42.83103516 -10.0546875 42.33984375 C3.68905099 37.82164226 18.99511289 39.63348516 32.4375 44.3125 C35.38671875 45.94921875 35.38671875 45.94921875 37.4375 47.3125 C36.76299887 53.26995089 35.76120055 59.09461717 34.58984375 64.97265625 C34.22782603 66.83775691 33.8665209 68.70299599 33.50585938 70.56835938 C32.94416375 73.46325219 32.37857763 76.35710275 31.80053711 79.2487793 C26.92667907 98.60259296 26.92667907 98.60259296 30.4375 117.3125 C36.19166341 117.77283307 39.02731411 117.06584969 43.4375 113.3125 C53.99614662 102.12191443 56.07975798 86.16239486 55.6796875 71.36328125 C55.01459468 57.49840077 50.20079025 43.22813961 40.4375 33.05078125 C25.1949538 19.80286512 7.76982107 18.34009583 -11.5625 19.3125 C-23.90081892 20.69882797 -37.41529724 27.25880755 -46.1796875 36.0625 C-47.5625 37.3125 -47.5625 37.3125 -49.5625 37.3125 C-49.82675781 37.89257812 -50.09101563 38.47265625 -50.36328125 39.0703125 C-51.61159202 41.40428768 -53.03777282 43.17357604 -54.75 45.1875 C-68.8974949 63.19608205 -72.49675968 86.10088797 -70.36035156 108.42480469 C-68.10896104 124.77924526 -60.72449666 138.83185907 -47.875 149.125 C-36.53528498 157.26596441 -25.51329544 159.49246626 -11.9375 159.5 C-10.79925781 159.51224609 -9.66101563 159.52449219 -8.48828125 159.53710938 C0.21225398 159.55209308 7.98081117 158.5957913 16.1875 155.6875 C19.76165012 154.46045903 22.62631645 153.70617534 26.4375 154.3125 C29.13740662 156.11243774 30.9793865 157.396273 32.4375 160.3125 C32.83290269 163.87112418 32.79451773 165.73550165 30.890625 168.8125 C27.89579054 171.8645606 24.8302477 173.13159677 20.875 174.5 C19.89563477 174.8702832 19.89563477 174.8702832 18.89648438 175.24804688 C9.00912498 178.82351435 -0.73892393 179.62075605 -11.1875 179.5 C-12.25484375 179.49935547 -13.3221875 179.49871094 -14.421875 179.49804688 C-36.91646203 179.37369105 -55.20949858 172.1226632 -71.5625 156.3125 C-89.11825933 136.38361191 -94.05134547 112.14688004 -92.5625 86.3125 C-89.92168258 60.73922337 -77.86316874 37.34241717 -58.34375 20.50390625 C-41.09281848 6.91152903 -22.09200302 -0.28870887 0 0 Z " fill="#41352E" transform="translate(264.5625,119.6875)"/>
<path d="M0 0 C3.86526773 1.4587471 4.97031959 3.24854146 6.6875 6.9375 C7.10386719 7.81277344 7.52023437 8.68804687 7.94921875 9.58984375 C9.41725836 12.95705728 10.12537504 15.58901954 10.13142776 19.23272896 C10.13526891 20.10051731 10.13911005 20.96830567 10.1430676 21.86239064 C10.14220112 22.81635916 10.14133463 23.77032768 10.14044189 24.75320435 C10.14341302 25.76622207 10.14638414 26.77923979 10.1494453 27.82295501 C10.15815001 31.23370353 10.15964205 34.64441702 10.16113281 38.05517578 C10.1657598 40.49418717 10.17078429 42.93319783 10.17617798 45.37220764 C10.18931705 52.01085366 10.19578674 58.64948593 10.20018864 65.28814173 C10.20295143 69.43459736 10.20718892 73.58105067 10.21169281 77.72750473 C10.22388717 89.21059841 10.23418524 100.69369022 10.2375679 112.17679024 C10.23789725 113.27938891 10.23789725 113.27938891 10.23823325 114.4042623 C10.23856067 115.50949022 10.23856067 115.50949022 10.2388947 116.63704598 C10.23933817 118.13010097 10.23978473 119.62315595 10.24023438 121.11621094 C10.2404558 121.85681672 10.24067723 122.5974225 10.24090537 123.36047088 C10.24485083 135.35286802 10.26229637 147.34520431 10.2855939 159.33757795 C10.30932693 171.65372396 10.32177069 183.96983947 10.32293582 196.28600872 C10.32385164 203.19948634 10.32958008 210.11288473 10.34775543 217.02634048 C10.36479817 223.53190843 10.36639439 230.03736624 10.35761642 236.54295158 C10.35684569 238.92898778 10.36119357 241.31503204 10.37107468 243.7010479 C10.38378745 246.96250864 10.37792051 250.22343656 10.36749268 253.4848938 C10.37554908 254.42547799 10.38360548 255.36606219 10.39190602 256.33514893 C10.32163631 265.75551053 7.79206817 272.642508 2 280 C-1.91722247 278.3481592 -4.89097838 275.69587681 -8.0625 272.9375 C-9.21416832 271.94843174 -10.36652468 270.96016412 -11.51953125 269.97265625 C-12.09783691 269.47652832 -12.67614258 268.98040039 -13.27197266 268.46923828 C-16.78529945 265.48206667 -20.37350579 262.58683489 -23.953125 259.6796875 C-26 258 -26 258 -27 257 C-27.14153974 254.01907462 -27.21750942 251.05987013 -27.25242615 248.07695007 C-27.26724205 247.12901119 -27.28205794 246.1810723 -27.29732281 245.20440799 C-27.34577638 242.00180269 -27.38674323 238.79914758 -27.42749023 235.59643555 C-27.45996402 233.31036542 -27.49268458 231.02429878 -27.52563477 228.73823547 C-27.81818757 207.82971671 -28.02002964 186.91995492 -28.19865322 166.01018047 C-28.22279136 163.20950313 -28.24715663 160.40882787 -28.27172852 157.6081543 C-28.27782597 156.91206367 -28.28392343 156.21597304 -28.29020566 155.49878875 C-28.39032441 144.24152623 -28.54298423 132.98558354 -28.71608006 121.72923257 C-28.89280897 110.1670618 -29.01479949 98.60541159 -29.08887631 87.04210311 C-29.13206161 80.55162471 -29.19941603 74.06348129 -29.32559013 67.57404137 C-29.4435003 61.46103969 -29.49458801 55.35104028 -29.49539948 49.23693657 C-29.50723296 46.99864233 -29.54297518 44.76032096 -29.60495949 42.52285385 C-30.07538765 24.77275534 -30.07538765 24.77275534 -24.99855232 19.10767555 C-22.14492228 16.44513413 -19.08463629 14.25094237 -15.7885257 12.17176497 C-12.93051071 10.2993167 -10.41024144 8.09165041 -7.8125 5.875 C-5.25111049 3.77827036 -2.75613952 1.83742635 0 0 Z " fill="#CD4D60" transform="translate(494,213)"/>
<path d="M0 0 C3.4584221 2.91719798 6.91105259 5.84115284 10.35107422 8.7800293 C14.27869433 12.1212771 18.29355917 15.32474168 22.37109375 18.48046875 C28.11653271 22.93575461 33.62706291 27.61691571 39.09667969 32.40527344 C43.56387165 36.31319254 48.11206864 40.10152947 52.72265625 43.83984375 C56.00685335 46.52270898 59.25590591 49.24473051 62.49609375 51.98046875 C63.04861816 52.44533691 63.60114258 52.91020508 64.17041016 53.38916016 C66.7220225 55.5485817 69.12932777 57.73870277 71.49609375 60.10546875 C64.23609375 60.43546875 56.97609375 60.76546875 49.49609375 61.10546875 C49.16609375 61.76546875 48.83609375 62.42546875 48.49609375 63.10546875 C39.58609375 63.10546875 30.67609375 63.10546875 21.49609375 63.10546875 C21.16609375 62.44546875 20.83609375 61.78546875 20.49609375 61.10546875 C-52.76390625 60.61046875 -52.76390625 60.61046875 -127.50390625 60.10546875 C-123.89174021 56.49330271 -120.28274072 53.12040853 -116.37890625 49.85546875 C-115.80978516 49.37658203 -115.24066406 48.89769531 -114.65429688 48.40429688 C-110.23861116 44.69748379 -105.77741527 41.04788853 -101.3046875 37.41015625 C-98.23614838 34.885138 -95.21350813 32.31062106 -92.19140625 29.73046875 C-87.19487898 25.46955369 -82.07684549 21.39906273 -76.88452148 17.38037109 C-72.36933491 13.85598761 -68.05199554 10.14008629 -63.75390625 6.35546875 C-44.02150797 -10.92772095 -22.07774069 -17.94533862 0 0 Z " fill="#86786E" transform="translate(283.50390625,35.89453125)"/>
<path d="M0 0 C10.48463659 8.70407292 17.99488329 20.40070936 21.64453125 33.52734375 C21.86753906 34.25308594 22.09054687 34.97882813 22.3203125 35.7265625 C26.98082131 53.8930356 23.83709979 74.697198 14.87890625 90.9140625 C9.4951699 99.99145685 1.8093193 105.95694751 -8.25390625 109.125 C-13.86742308 110.19970675 -20.46262625 110.96892747 -25.69140625 108.36328125 C-30.76238259 104.19095895 -32.22117875 100.10886478 -32.98046875 93.71484375 C-33.11247675 92.31965574 -33.23984269 90.92398483 -33.35546875 89.52734375 C-35.69184087 89.14015016 -35.69184087 89.14015016 -38.35546875 89.52734375 C-40.46110924 91.50414138 -40.46110924 91.50414138 -42.23046875 94.15234375 C-47.61876716 101.2830265 -53.41823792 107.30241076 -62.35546875 109.52734375 C-76.70850977 110.9410101 -76.70850977 110.9410101 -82.48046875 107.96484375 C-88.97240493 102.4608109 -93.52162858 96.84528657 -94.67285156 88.12255859 C-94.82960576 85.51993319 -94.87425327 82.94708737 -94.85546875 80.33984375 C-94.84974854 79.41582764 -94.84402832 78.49181152 -94.83813477 77.53979492 C-94.51881845 65.23697807 -89.92676423 56.14813979 -82.35546875 46.52734375 C-81.72898438 45.69203125 -81.1025 44.85671875 -80.45703125 43.99609375 C-72.93915393 35.16468396 -59.96161822 27.86073633 -48.35546875 26.52734375 C-37.92732247 26.00482469 -26.84408296 25.62862875 -17.35546875 30.52734375 C-17.97095513 39.34445147 -19.66504745 47.93238676 -21.35546875 56.58984375 C-26.72137366 78.64571068 -26.72137366 78.64571068 -22.62109375 100.00390625 C-20.59958187 102.43720759 -18.40878875 103.31422064 -15.34765625 103.93359375 C-8.41622601 104.24052055 -3.72711999 101.7879355 1.64453125 97.52734375 C12.10811359 87.45993268 15.49537319 71.74614865 15.97680664 57.80029297 C16.27989642 40.34578566 11.88354358 23.62103223 0.33203125 10.08984375 C-12.36334515 -2.92504716 -27.8442921 -8.38434079 -45.76342773 -8.76538086 C-65.94956013 -8.9157604 -83.15703287 -3.13478814 -98.35546875 10.52734375 C-99.27199219 11.30464844 -99.27199219 11.30464844 -100.20703125 12.09765625 C-115.17694807 25.70045738 -123.06841271 47.55484951 -124.56689453 67.31542969 C-125.09217981 78.34453779 -124.78507999 88.94412281 -121.35546875 99.52734375 C-121.06542969 100.46449219 -120.77539062 101.40164062 -120.4765625 102.3671875 C-114.60478132 119.88425856 -104.57191101 131.63471817 -88.26953125 140.13671875 C-69.87930155 148.34233305 -47.03935443 147.78558367 -28.3046875 141.05859375 C-25.74505042 140.36097723 -23.8374926 140.64662561 -21.35546875 141.52734375 C-21.35546875 142.51734375 -21.35546875 143.50734375 -21.35546875 144.52734375 C-38.75727526 153.53899355 -62.73706796 154.50088451 -81.60546875 150.02734375 C-100.08972797 143.95061707 -114.64946548 132.80117548 -123.96875 115.5390625 C-134.6414283 93.84942596 -135.64395016 69.1759688 -128.2890625 46.1953125 C-123.93216304 34.07364173 -117.93266395 23.15250452 -109.35546875 13.52734375 C-108.6903125 12.76808594 -108.02515625 12.00882813 -107.33984375 11.2265625 C-80.45713422 -17.59767605 -31.87342132 -24.50703491 0 0 Z " fill="#EA6977" transform="translate(311.35546875,140.47265625)"/>
<path d="M0 0 C2.56665921 1.00358558 2.97915055 1.9002663 4.15771484 4.35595703 C4.52380859 5.08814453 4.88990234 5.82033203 5.26708984 6.57470703 C5.63576172 7.34556641 6.00443359 8.11642578 6.38427734 8.91064453 C10.80312962 18.06398138 15.20715967 25.05329973 25.00927734 28.78564453 C27.32965761 29.52638131 29.65370212 30.160696 32.00927734 30.78564453 C33.00927734 31.78564453 33.00927734 31.78564453 33.07177734 34.34814453 C33.05115234 35.15251953 33.03052734 35.95689453 33.00927734 36.78564453 C32.04248047 37.25873047 31.07568359 37.73181641 30.07958984 38.21923828 C19.6035964 43.48082655 8.99972997 49.0424014 4.68115234 60.63330078 C4.34857422 61.69871094 4.34857422 61.69871094 4.00927734 62.78564453 C3.67669922 63.83558594 3.67669922 63.83558594 3.33740234 64.90673828 C2.85636377 66.52211781 2.42623732 68.1525513 2.00927734 69.78564453 C-0.36572266 69.91064453 -0.36572266 69.91064453 -2.99072266 69.78564453 C-5.43311845 67.34324874 -5.7790173 65.52584318 -6.74072266 62.22314453 C-9.507759 53.69740523 -14.02475581 45.45741456 -21.99072266 40.78564453 C-25.60657979 39.49566307 -29.23296274 38.56030028 -32.99072266 37.78564453 C-34.11572266 33.03564453 -34.11572266 33.03564453 -32.99072266 30.78564453 C-30.84214627 30.0241985 -28.67073871 29.32676055 -26.49072266 28.66064453 C-18.86322576 26.10843396 -12.89516242 22.54592975 -8.62744141 15.55126953 C-6.89360289 11.89444647 -5.79895681 8.21505148 -4.86572266 4.28564453 C-4.57697266 3.13064453 -4.28822266 1.97564453 -3.99072266 0.78564453 C-1.99072266 -0.21435547 -1.99072266 -0.21435547 0 0 Z " fill="#3B322A" transform="translate(73.99072265625,21.21435546875)"/>
<path d="M0 0 C0.495 0.495 0.495 0.495 1 1 C0.92285156 2.7565918 0.92285156 2.7565918 0.640625 5.01171875 C0.53943359 5.82688965 0.43824219 6.64206055 0.33398438 7.48193359 C0.16866211 8.72837646 0.16866211 8.72837646 0 10 C-0.09474609 10.73686035 -0.18949219 11.4737207 -0.28710938 12.23291016 C-2.54766873 29.02401126 -6.94172337 42.21875713 -20.0703125 53.5546875 C-24.26572371 56.69699954 -27.55518374 57.49789145 -32.74609375 57.38671875 C-36.65432914 56.71615497 -38.31880718 54.87737766 -41 52 C-44.6572783 46.48885994 -43.71389056 38.34155389 -43 32 C-40.46275069 21.15473435 -34.64192547 11.99337171 -25.5 5.5625 C-24.02005901 4.67403202 -22.5206054 3.81692099 -21 3 C-20.06414062 2.49146484 -20.06414062 2.49146484 -19.109375 1.97265625 C-13.07484528 -0.77837936 -6.50799844 -0.49693968 0 0 Z " fill="#F9E5C8" transform="translate(276,180)"/>
<path d="M0 0 C4.19856747 2.79904498 7.8757683 5.45818842 11.6875 8.6875 C12.74053733 9.5746321 13.79393055 10.4613419 14.84765625 11.34765625 C15.37375488 11.79125488 15.89985352 12.23485352 16.44189453 12.69189453 C18.82053553 14.68887956 21.22158237 16.65794756 23.625 18.625 C24.51058594 19.35074219 25.39617187 20.07648438 26.30859375 20.82421875 C28.16231575 22.32280098 30.03047958 23.80363576 31.91015625 25.26953125 C32.82667969 25.98496094 33.74320312 26.70039063 34.6875 27.4375 C35.51636719 28.07558594 36.34523438 28.71367187 37.19921875 29.37109375 C37.79347656 29.90863281 38.38773437 30.44617188 39 31 C39 31.66 39 32.32 39 33 C37.15625 34.70703125 37.15625 34.70703125 34.5 36.8125 C33.4996875 37.61300781 32.499375 38.41351563 31.46875 39.23828125 C30.91445313 39.67865723 30.36015625 40.1190332 29.7890625 40.57275391 C26.50671647 43.19128487 23.25646649 45.84941469 20 48.5 C18.63413428 49.6080972 17.2682491 50.7161704 15.90234375 51.82421875 C13.44890231 53.81715146 11.00280163 55.81829781 8.56640625 57.83203125 C7.57511719 58.65058594 6.58382813 59.46914062 5.5625 60.3125 C4.69753906 61.03050781 3.83257812 61.74851563 2.94140625 62.48828125 C1 64 1 64 0 64 C0 42.88 0 21.76 0 0 Z " fill="#86776D" transform="translate(451,176)"/>
<path d="M0 0 C0.93005859 0.72316406 0.93005859 0.72316406 1.87890625 1.4609375 C1.55323175 3.79550945 1.21812068 6.12830306 0.87890625 8.4609375 C0.73952637 9.43272949 0.60014648 10.40452148 0.45654297 11.40576172 C-2.41887788 30.86594228 -5.4920178 48.95105829 -21.12109375 62.4609375 C-27.66723952 66.98640805 -34.04102519 69.50210786 -42.12109375 68.4609375 C-47.99546668 66.56772339 -51.72512585 63.55488935 -55.12109375 58.4609375 C-59.44398622 45.79668914 -57.5646844 33.6182459 -51.8359375 21.8125 C-46.13552396 11.49141699 -37.60609879 3.0097978 -26.32275391 -0.98388672 C-18.46607637 -2.96504493 -7.36948666 -3.6340147 0 0 Z M-40.12109375 16.4609375 C-46.93540218 25.52836403 -50.31252041 33.30716221 -50.55859375 44.6484375 C-50.58107178 45.32608154 -50.6035498 46.00372559 -50.62670898 46.7019043 C-50.59820086 52.65864062 -48.30815642 56.03086787 -44.43359375 60.3359375 C-40.67096577 62.16640517 -37.21177979 62.16971974 -33.12109375 61.4609375 C-22.97998333 57.25106694 -16.37029525 48.23280149 -12.12109375 38.4609375 C-10.80933218 34.50918715 -9.92609464 30.54344202 -9.12109375 26.4609375 C-8.98574219 25.79771484 -8.85039062 25.13449219 -8.7109375 24.45117188 C-8.2753277 22.31040481 -7.85130117 20.16776679 -7.43359375 18.0234375 C-7.30186768 17.34901611 -7.1701416 16.67459473 -7.03442383 15.97973633 C-6.3766446 12.43747339 -5.87180948 9.06545328 -6.12109375 5.4609375 C-7.92510737 3.65692388 -10.49287002 4.16121486 -12.93359375 4.0859375 C-23.67313746 4.19191984 -33.03350815 8.33465401 -40.12109375 16.4609375 Z " fill="#40352E" transform="translate(283.12109375,175.5390625)"/>
<path d="M0 0 C0 20.79 0 41.58 0 63 C-3.53197981 61.2340101 -5.93527039 59.55909094 -8.9375 57.0625 C-10.38769531 55.85980469 -10.38769531 55.85980469 -11.8671875 54.6328125 C-15.66045726 51.45298371 -19.43283978 48.24843987 -23.20361328 45.04199219 C-28.05545578 40.92660309 -33.00239986 36.93716128 -38 33 C-36.44110459 28.84617311 -33.40287637 26.53069647 -30.0625 23.8125 C-29.48129395 23.33055176 -28.90008789 22.84860352 -28.30126953 22.35205078 C-26.53982067 20.89434972 -24.77077799 19.44634527 -23 18 C-21.55560547 16.81083984 -21.55560547 16.81083984 -20.08203125 15.59765625 C-18.29766724 14.13257238 -16.50997509 12.67153121 -14.71875 11.21484375 C-12.7746341 9.63105968 -10.83737728 8.04084677 -8.90625 6.44140625 C-7.9059375 5.61511719 -6.905625 4.78882813 -5.875 3.9375 C-4.96492188 3.18339844 -4.05484375 2.42929688 -3.1171875 1.65234375 C-1 0 -1 0 0 0 Z " fill="#86786E" transform="translate(60,176)"/>
<path d="M0 0 C1.2065625 0.0309375 1.2065625 0.0309375 2.4375 0.0625 C2.88480469 0.94292969 3.33210938 1.82335938 3.79296875 2.73046875 C4.39753906 3.89191406 5.00210937 5.05335937 5.625 6.25 C6.21667969 7.39855469 6.80835937 8.54710938 7.41796875 9.73046875 C10.64323288 15.05184265 13.87697106 18.26070958 19.75 20.375 C20.63300781 20.70113281 21.51601563 21.02726562 22.42578125 21.36328125 C23.08964844 21.59402344 23.75351562 21.82476562 24.4375 22.0625 C24.65625 24.41015625 24.65625 24.41015625 24.4375 27.0625 C22.96875 28.43359375 22.96875 28.43359375 20.9375 29.5 C11.08472837 35.10769449 5.7192262 39.84993548 2.4375 51.0625 C0.0625 51.1875 0.0625 51.1875 -2.5625 51.0625 C-4.92791116 48.69708884 -5.40197616 46.91219882 -6.4375 43.75 C-8.43258009 38.13883726 -10.16598448 34.46915041 -15.4375 31.375 C-18.44477937 30.11194266 -21.44728824 29.02673221 -24.5625 28.0625 C-24.5625 26.0825 -24.5625 24.1025 -24.5625 22.0625 C-23.76585938 21.78277344 -22.96921875 21.50304687 -22.1484375 21.21484375 C-15.4441097 18.67829151 -10.16620463 16.48318501 -6.5625 10.0625 C-5.59509019 7.69004261 -4.79536221 5.34970425 -4.10546875 2.8828125 C-3.26325368 0.05927133 -3.04585459 0.07428914 0 0 Z " fill="#3B3229" transform="translate(24.5625,59.9375)"/>
<path d="M0 0 C1.2065625 0.0309375 1.2065625 0.0309375 2.4375 0.0625 C2.86160156 0.93132813 3.28570313 1.80015625 3.72265625 2.6953125 C8.03053109 11.15957648 11.72906377 17.39505991 20.875 20.9375 C22.050625 21.30875 23.22625 21.68 24.4375 22.0625 C24.8203125 24.3203125 24.8203125 24.3203125 24.4375 27.0625 C21.8046875 29.0546875 21.8046875 29.0546875 18.3125 30.9375 C9.92974924 35.73265052 5.59780702 39.9933971 2.8828125 49.33984375 C2.73585938 49.90832031 2.58890625 50.47679687 2.4375 51.0625 C0.0625 51.1875 0.0625 51.1875 -2.5625 51.0625 C-4.9219043 48.7030957 -5.36102375 46.97092814 -6.375 43.8125 C-8.48064644 37.95497444 -10.16738198 33.7018872 -16.0703125 30.8515625 C-17.84944205 30.13686943 -19.64378743 29.45855751 -21.453125 28.82421875 C-23.5625 28.0625 -23.5625 28.0625 -24.5625 27.0625 C-24.60313832 25.39632885 -24.605221 23.72861905 -24.5625 22.0625 C-23.83804687 21.75957031 -23.11359375 21.45664062 -22.3671875 21.14453125 C-12.62143609 17.2649927 -12.62143609 17.2649927 -6.3515625 9.3359375 C-5.63478856 7.3686218 -4.95664999 5.38665272 -4.32421875 3.390625 C-3.2407311 0.07904222 -3.2407311 0.07904222 0 0 Z " fill="#3B322A" transform="translate(24.5625,-0.0625)"/>
<path d="M0 0 C5.08473765 3.68892732 9.95333109 7.57293303 14.75 11.625 C15.30453857 12.09204346 15.85907715 12.55908691 16.43041992 13.0402832 C19.41713201 15.57860505 22.27491794 18.18231807 25 21 C23.82009775 21.80294647 22.63054311 22.59171174 21.4375 23.375 C20.77621094 23.81585938 20.11492187 24.25671875 19.43359375 24.7109375 C13.92706059 27.62772071 8.42112583 28.29311549 2.2826395 28.24609566 C1.15873007 28.24955719 1.15873007 28.24955719 0.01211539 28.25308865 C-2.49465317 28.25837583 -5.001164 28.24941529 -7.50791931 28.24050903 C-9.32474867 28.24138136 -11.14157778 28.24313285 -12.95840555 28.24568737 C-17.94791325 28.25015951 -22.93733509 28.24215899 -27.92683184 28.23213124 C-33.30849048 28.22349717 -38.69014425 28.22641688 -44.07180786 28.22793579 C-53.39492376 28.22898467 -62.71801167 28.22270776 -72.04112053 28.21146011 C-85.5207806 28.19520847 -99.00042713 28.18999745 -112.48009593 28.18748413 C-134.3497754 28.1831065 -156.21943996 28.16979555 -178.08911133 28.15087891 C-199.33390224 28.13252187 -220.57868909 28.1183645 -241.82348633 28.10986328 C-243.78766432 28.10907511 -243.78766432 28.10907511 -245.79152267 28.10827102 C-252.36063549 28.10566095 -258.92974833 28.10313353 -265.49886119 28.10064721 C-319.9992511 28.0799126 -374.49962484 28.04468522 -429 28 C-429 27.67 -429 27.34 -429 27 C-428.13375395 27.00054207 -427.26750791 27.00108415 -426.37501198 27.00164264 C-375.04419047 27.03287703 -323.71348265 27.02772836 -272.38267488 26.97527504 C-266.22053024 26.96900963 -260.05838535 26.96304848 -253.89624023 26.95727539 C-252.05606742 26.95554373 -252.05606742 26.95554373 -250.17871939 26.95377708 C-230.30990302 26.93580559 -210.44116743 26.94248656 -190.57235248 26.95826416 C-170.18796123 26.97390297 -149.80370813 26.96308165 -129.41934103 26.92765242 C-116.8391162 26.90662257 -104.25923891 26.90627805 -91.67902201 26.93231983 C-83.05448837 26.94819682 -74.43022316 26.93839222 -65.8057282 26.90833985 C-60.82830349 26.89175589 -55.85154673 26.88654574 -50.8741436 26.91181374 C-46.31563828 26.9347052 -41.75837427 26.92529309 -37.19995587 26.89036006 C-35.55243743 26.88340536 -33.90481749 26.88823041 -32.25738169 26.9061371 C-23.8330243 26.99117386 -17.26818136 26.93072067 -10.71174234 20.92146403 C-5.02576494 14.53884396 -1.97682992 8.3061538 0 0 Z " fill="#C75462" transform="translate(465,477)"/>
<path d="M0 0 C0.515625 0.66 1.03125 1.32 1.5625 2 C6.02332647 7.49024797 10.31121769 12.73341327 16 17 C17.01077105 17.98911167 18.01284639 18.98731656 19 20 C18.28714844 20.4125 17.57429688 20.825 16.83984375 21.25 C10.05645628 25.34011788 3.63784383 29.72431233 0 37 C-0.66 37 -1.32 37 -2 37 C-3.12482957 35.33204692 -4.1746808 33.61324805 -5.1875 31.875 C-8.25297461 26.89200048 -11.37706298 23.5007465 -16 20 C-16.66 19.34 -17.32 18.68 -18 18 C-17.20335937 17.45472656 -16.40671875 16.90945312 -15.5859375 16.34765625 C-8.90372579 11.59206763 -3.96829301 7.36222783 0 0 Z " fill="#D3DC55" transform="translate(74,37)"/>
<path d="M0 0 C6.74423077 4.49615385 6.74423077 4.49615385 9.54296875 6.9453125 C10.14173828 7.46480469 10.74050781 7.98429688 11.35742188 8.51953125 C12.26331055 9.31423828 12.26331055 9.31423828 13.1875 10.125 C14.40884938 11.1916025 15.63145932 12.25676368 16.85546875 13.3203125 C17.38809326 13.78711426 17.92071777 14.25391602 18.46948242 14.73486328 C20.18780323 16.1992821 20.18780323 16.1992821 23 18 C23 18.66 23 19.32 23 20 C21.45111498 21.41706502 19.83238466 22.75809496 18.1875 24.0625 C17.19363281 24.8565625 16.19976562 25.650625 15.17578125 26.46875 C14.6545166 26.88253906 14.13325195 27.29632813 13.59619141 27.72265625 C12.00277618 28.99777837 10.42674983 30.29148011 8.85546875 31.59375 C7.87191406 32.4084375 6.88835937 33.223125 5.875 34.0625 C4.96492188 34.81660156 4.05484375 35.57070312 3.1171875 36.34765625 C1 38 1 38 0 38 C0 25.46 0 12.92 0 0 Z " fill="#6A5A50" transform="translate(467,189)"/>
<path d="M0 0 C0.66 0 1.32 0 2 0 C2.93637414 1.43800315 3.86960101 2.87822737 4.78125 4.33203125 C6.78725325 7.07742673 9.31921165 8.92848173 12 11 C10.33333333 12.66666667 8.66666667 14.33333333 7 16 C6.13375 16.9075 5.2675 17.815 4.375 18.75 C2 21 2 21 -1 22 C-1.5775 21.0925 -2.155 20.185 -2.75 19.25 C-4.66785116 16.47977054 -6.54402845 14.28054501 -9 12 C-8 9 -8 9 -5.0625 6.5625 C-2.38705307 4.32386073 -1.17591989 3.1749837 0 0 Z " fill="#D1D955" transform="translate(24,74)"/>
<path d="M0 0 C0.66 0 1.32 0 2 0 C3.3671875 1.609375 3.3671875 1.609375 4.875 3.75 C7.03030212 6.79676215 9.30713385 9.41205071 12 12 C11.37351562 12.47050781 10.74703125 12.94101562 10.1015625 13.42578125 C9.28429687 14.04839844 8.46703125 14.67101563 7.625 15.3125 C6.81289063 15.92738281 6.00078125 16.54226562 5.1640625 17.17578125 C2.80220611 18.99480683 2.80220611 18.99480683 1 22 C0.34 22 -0.32 22 -1 22 C-2.40234375 20.13671875 -2.40234375 20.13671875 -3.9375 17.6875 C-5.75569887 14.79977238 -7.48648525 12.318436 -10 10 C-8.906875 9.278125 -7.81375 8.55625 -6.6875 7.8125 C-3.51362598 5.57287115 -1.8653473 3.43616607 0 0 Z " fill="#D1DA55" transform="translate(24,14)"/>
</svg>
